Coordinates
version=1
nRows=27
nColumns=12
inDegrees=yes

Units are S.I. units (second, meters, Newtons, ...)
Angles are in degrees

endheader
time	SC_y	SC_z	SC_x	AC_y	AC_z	AC_x	GH_y	GH_z	GH_yy	EL_x	PS_y
       0.0              -14.87          16.25          19.78           33.7         -18.41          1.673          107.5          74.53         -146.4          128.0          28.42
   0.04528              -14.87          16.25          19.79          33.71         -18.41           1.67          107.5          74.53         -146.4          128.0          28.43
   0.09056              -14.87          16.25          19.79          33.71         -18.41          1.667          107.5          74.53         -146.4          128.0          28.44
    0.1358              -14.87          16.25           19.8          33.72         -18.41          1.664          107.5          74.53         -146.3          128.0          28.45
    0.1811              -14.87          16.25          19.81          33.72         -18.41           1.66          107.5          74.53         -146.3          127.9          28.46
    0.2264              -14.87          16.25          19.82          33.73         -18.41          1.657          107.5          74.53         -146.3          127.9          28.48
    0.2717              -14.87          16.25          19.83          33.74         -18.41          1.653          107.5          74.53         -146.2          127.9          28.49
     0.317              -14.87          16.25          19.84          33.75         -18.41          1.649          107.5          74.53         -146.2          127.9          28.51
    0.3622              -14.87          16.25          19.85          33.75         -18.41          1.644          107.5          74.53         -146.1          127.9          28.52
    0.4075              -14.87          16.25          19.86          33.76         -18.41           1.64          107.5          74.53         -146.1          127.8          28.54
    0.4528              -14.87          16.25          19.87          33.77         -18.41          1.635          107.5          74.54         -146.0          127.8          28.56
    0.4981              -14.88          16.25          19.88          33.78         -18.41          1.629          107.5          74.54         -145.9          127.8          28.58
    0.5434              -14.88          16.25           19.9          33.79         -18.41          1.623          107.5          74.54         -145.9          127.8           28.6
    0.5886              -14.88          16.24          19.91           33.8         -18.41          1.617          107.5          74.54         -145.8          127.7          28.63
    0.6339              -14.88          16.24          19.93          33.82         -18.41           1.61          107.6          74.54         -145.7          127.7          28.65
    0.6792              -14.88          16.24          19.95          33.83         -18.41          1.603          107.6          74.54         -145.6          127.7          28.68
    0.7245              -14.88          16.24          19.97          33.84         -18.41          1.594          107.6          74.55         -145.6          127.6          28.71
    0.7698              -14.88          16.24          19.99          33.86         -18.41          1.586          107.6          74.55         -145.5          127.6          28.74
     0.815              -14.88          16.24          20.01          33.88         -18.41          1.576          107.6          74.55         -145.3          127.5          28.78
    0.8603              -14.88          16.24          20.04           33.9         -18.41          1.566          107.6          74.55         -145.2          127.5          28.82
    0.9056              -14.89          16.24          20.06          33.92         -18.41          1.554          107.6          74.56         -145.1          127.4          28.86
    0.9509              -14.89          16.23          20.09          33.94         -18.41          1.541          107.6          74.56         -145.0          127.4          28.91
    0.9962              -14.89          16.23          20.13          33.96         -18.41          1.527          107.6          74.56         -144.8          127.3          28.96
     1.041              -14.89          16.23          20.17          33.99         -18.41          1.512          107.7          74.57         -144.6          127.2          29.02
     1.087              -14.89          16.23          20.21          34.02         -18.42          1.494          107.7          74.57         -144.4          127.2          29.09
     1.132               -14.9          16.22          20.25          34.06         -18.42          1.475          107.7          74.58         -144.2          127.1          29.16
     1.177               -14.9          16.22          20.31           34.1         -18.42          1.453          107.7          74.58         -144.0          127.0          29.24
